<svg xmlns="http://www.w3.org/2000/svg" xmlns:xlink="http://www.w3.org/1999/xlink" viewBox="0 0 800 200"><path d="M47.06 106.86l1.65-95.8H66.8l13.6 66.35 14.19-66.35h17.5l1.77 95.8h-13l-1.42-66.58-13.6 66.58H75.32L61.49 40.04l-1.3 66.82H47.06zM122.02 106.86v-95.8h40.2v12.3h-22.7v27.56h17.85V63.1h-17.85v31.7h22.94v12.06h-40.44zM167.57 106.86v-95.8h12.18l23.29 54.64V11.06h14.42v95.8h-11.59l-23.41-57.24v57.24h-14.89zM224.63 106.86V95.63l25.77-72.5h-24.35V11.06h41.97v8.99L241.3 94.8h26.84v12.06h-43.51zM277.56 106.86v-95.8h17.26v95.8h-17.26zM303.56 106.86v-95.8h12.18l23.29 54.64V11.06h14.42v95.8h-11.59l-23.41-57.24v57.24h-14.89zM385.96 108.16c-6.31 0-11.31-1.34-15.01-4.02-3.71-2.68-6.37-6.49-7.98-11.41-1.62-4.93-2.42-10.74-2.42-17.44V43.12c0-6.86.79-12.77 2.36-17.74 1.57-4.97 4.35-8.77 8.33-11.41 3.98-2.64 9.48-3.96 16.49-3.96 6.54 0 11.74 1.1 15.61 3.31a18.91 18.91 0 018.33 9.52c1.69 4.14 2.54 9.17 2.54 15.08v4.97h-16.67v-5.44c0-3.07-.22-5.72-.65-7.92-.43-2.21-1.3-3.88-2.6-5.03-1.3-1.14-3.41-1.72-6.32-1.72-3.07 0-5.3.75-6.68 2.25a10.74 10.74 0 00-2.6 5.91 56.9 56.9 0 00-.53 8.04v40.09c0 3.31.28 6.19.83 8.63.55 2.45 1.58 4.32 3.07 5.62 1.5 1.3 3.62 1.95 6.38 1.95 2.84 0 5-.71 6.5-2.13s2.54-3.39 3.13-5.91c.59-2.52.89-5.52.89-8.99v-8.99h-10.28v-11h26.01v48.61h-11.23l-1.3-9.46a18.3 18.3 0 01-5.73 7.75c-2.56 2.01-6.05 3.01-10.47 3.01zM422.02 106.86v-95.8h40.2v12.3h-22.7v27.56h17.85V63.1h-17.85v31.7h22.94v12.06h-40.44zM466.59 106.86v-95.8h22.93c6.46 0 11.92.77 16.37 2.31a18.85 18.85 0 0110.17 7.87c2.32 3.71 3.49 8.75 3.49 15.14 0 3.86-.36 7.33-1.06 10.41a19.64 19.64 0 01-3.61 7.86 16.36 16.36 0 01-7.03 5.03l13.36 47.19h-17.5l-11.59-43.88h-8.04v43.88h-17.49zm17.5-54.87h5.44c3.39 0 6.09-.49 8.1-1.48a8.66 8.66 0 004.32-4.73c.87-2.17 1.3-4.95 1.3-8.34 0-4.81-.89-8.41-2.66-10.82-1.77-2.4-5.14-3.61-10.11-3.61h-6.38v28.98zM551 108.16c-5.75 0-10.56-1.12-14.42-3.37a21.25 21.25 0 01-8.75-9.88c-1.97-4.33-3.07-9.66-3.31-15.97l15.01-2.96c.16 3.71.61 6.98 1.36 9.82.75 2.84 1.89 5.03 3.43 6.56 1.54 1.54 3.57 2.31 6.09 2.31 2.84 0 4.85-.85 6.03-2.54 1.18-1.69 1.77-3.84 1.77-6.45 0-4.18-.95-7.61-2.84-10.29a44.33 44.33 0 00-7.57-8.04l-12.06-10.64a36.26 36.26 0 01-8.1-9.76c-2.01-3.59-3.01-8.02-3.01-13.31 0-7.57 2.21-13.4 6.62-17.5s10.44-6.15 18.09-6.15c4.49 0 8.23.69 11.23 2.07s5.38 3.29 7.15 5.74a26.02 26.02 0 013.96 8.34 49.36 49.36 0 011.66 9.88l-14.9 2.6c-.16-3-.49-5.68-1.01-8.04a11.2 11.2 0 00-2.72-5.56c-1.3-1.34-3.21-2.01-5.73-2.01-2.6 0-4.59.85-5.97 2.54a9.7 9.7 0 00-2.07 6.33c0 3.23.67 5.9 2.01 7.98a31.35 31.35 0 005.79 6.45l11.94 10.53a49.62 49.62 0 0110.11 11.65c2.8 4.46 4.2 9.84 4.2 16.14 0 4.57-1.01 8.63-3.02 12.18a21.63 21.63 0 01-8.39 8.34c-3.58 2.01-7.77 3.01-12.58 3.01zM218.36 188c-3.84 0-7.04-.75-9.62-2.25a14.1 14.1 0 01-5.83-6.58c-1.31-2.89-2.05-6.44-2.21-10.64l10.01-1.97c.1 2.47.41 4.65.91 6.54a9.49 9.49 0 002.29 4.38 5.47 5.47 0 004.06 1.54c1.89 0 3.23-.56 4.02-1.69a7.32 7.32 0 001.18-4.3c0-2.79-.63-5.07-1.89-6.86a29.5 29.5 0 00-5.04-5.36l-8.04-7.1a24.1 24.1 0 01-5.4-6.5c-1.34-2.39-2.01-5.35-2.01-8.87 0-5.05 1.47-8.94 4.41-11.67 2.94-2.73 6.96-4.1 12.06-4.1 3 0 5.49.46 7.49 1.38 2 .92 3.59 2.2 4.77 3.82a17.31 17.31 0 012.64 5.56c.58 2.08.95 4.27 1.1 6.58l-9.93 1.73c-.11-2-.33-3.78-.67-5.36a7.53 7.53 0 00-1.81-3.71c-.87-.89-2.14-1.34-3.82-1.34-1.73 0-3.06.56-3.98 1.69a6.47 6.47 0 00-1.38 4.22 9.7 9.7 0 001.34 5.32 20.8 20.8 0 003.86 4.3l7.96 7.02a33.1 33.1 0 016.74 7.77c1.86 2.97 2.8 6.56 2.8 10.76 0 3.05-.67 5.76-2.01 8.12a14.46 14.46 0 01-5.6 5.56 16.9 16.9 0 01-8.4 2.01zM238.34 187.13v-63.86h11.59V150h13v-26.73h11.66v63.86h-11.66v-28.86h-13v28.86h-11.59zM280.67 187.13v-63.86h11.51v63.86h-11.51zM298.01 187.13v-63.86h15.29c4.31 0 7.95.51 10.92 1.54a12.56 12.56 0 016.78 5.24c1.55 2.47 2.33 5.83 2.33 10.09 0 2.58-.24 4.89-.71 6.94a13.1 13.1 0 01-2.4 5.24 10.8 10.8 0 01-4.69 3.35l8.91 31.46h-11.66l-7.72-29.25h-5.36v29.25h-11.69zm11.66-36.58h3.63c2.26 0 4.06-.33 5.4-.99a5.79 5.79 0 002.88-3.15c.58-1.44.87-3.3.87-5.56 0-3.21-.59-5.61-1.77-7.21-1.18-1.6-3.43-2.4-6.74-2.4h-4.26v19.31zM345.57 187.13v-55.27H335.4v-8.59h31.84v8.59h-10.01v55.27h-11.66zM39.1 97.91H5.26v8.91H0v-27.9h5.26v8.77H39.1v10.22zM39.1 72.27H0V62.12h16.37v-11.4H0V40.5h39.1v10.22H21.43v11.4H39.1v10.15zM39.1 34.48H0V10.99h5.02v13.26h11.25V13.82h4.97v10.43h12.94v-13.4h4.92v23.63z" fill="#1e1e1e"/><path d="M607.63 92.37a17.5 17.5 0 1024.75-24.77 17.5 17.5 0 00-24.75 24.77" fill="#fdee5f"/><g fill="#13110c"><path d="M612.6 76.75a.2.2 0 00.06.1c.09.09.22.09.31 0a7.75 7.75 0 016.96-4.55h.03a.31.31 0 00.13-.06l1.92-1.92a.21.21 0 000-.31l-1.92-1.92a.27.27 0 00-.16-.06l-.23-.01a7.23 7.23 0 00-7.1 8.73zM620.19 76.34c-.09-.07-.22-.07-.3.01l-.01.01-.01.02c-.38.46-.6 1.02-.63 1.59v.28l.01.09v.04l.01.08.01.05.01.08.01.05.01.08.01.05.02.07.02.06.02.07.02.06.02.06.02.06.02.06.03.06.03.06.03.06.03.06.03.06.03.05.04.06.03.05.05.06.03.05.05.07.03.04a.5.5 0 00.07.08l.02.03.1.1.04.04a2.76 2.76 0 003.86-.04l.95-.95.47-.47a.21.21 0 01.31 0l.53.53c.09.09.22.09.31 0a7.5 7.5 0 001.2-3.36.18.18 0 00-.06-.17l-.01-.01-.69-.67-.13-.13-.63-.63c-.09-.09-.22-.08-.31 0l-1.26 1.26-.42.42-.28.28a2.74 2.74 0 01-3.74.14"/><path d="M631.96 80.29a.18.18 0 00-.06-.17.21.21 0 00-.31 0l-.04.06-.01.01a12.6 12.6 0 01-23.08-.01l-.04-.07a.21.21 0 00-.31 0 .21.21 0 00-.06.18 11.97 11.97 0 0023.91 0z"/></g><path d="M700 62.5a17.5 17.5 0 10.01 35.01A17.5 17.5 0 00700 62.5zm7.62 25.4a1.19 1.19 0 01-1.63.43c-3.14-1.84-6.78-2.13-9.27-2.06-2.76.08-4.79.63-4.81.64a1.2 1.2 0 11-.63-2.31 24.4 24.4 0 015.3-.72c1.79-.06 3.51.07 5.11.37 2.03.39 3.89 1.06 5.51 2.01.56.33.75 1.07.42 1.64zm2.22-4.62a1.42 1.42 0 01-1.94.51c-3.72-2.18-8.03-2.53-10.98-2.44-3.27.1-5.67.75-5.7.75a1.42 1.42 0 01-1.74-.99c-.21-.75.24-1.53.99-1.74a29.6 29.6 0 0112.33-.41c2.41.46 4.6 1.26 6.53 2.38.68.39.91 1.26.51 1.94zm1.37-4.2c-.3 0-.6-.08-.88-.24-8.86-5.18-20.34-2.1-20.46-2.07a1.74 1.74 0 01-.93-3.35c.13-.04 3.3-.9 7.71-1.04 2.6-.09 5.09.1 7.42.54 2.95.56 5.65 1.54 8.01 2.92.83.48 1.11 1.55.62 2.38a1.7 1.7 0 01-1.49.86z" fill="#53b159"/><circle cx="740" cy="80" r="17.5" fill="#e52521"/><path d="M740 71.65a8.35 8.35 0 110 16.7 8.35 8.35 0 010-16.7m0-.8a9.15 9.15 0 100 18.3 9.15 9.15 0 000-18.3z" fill="#fff"/><path fill="#fff" d="M736.82 84.57l7.75-4.77-7.75-4.37z"/><circle cx="740" cy="30" r="17.5" fill="#010202"/><path d="M740 21.65a8.35 8.35 0 110 16.7 8.35 8.35 0 010-16.7m0-.8a9.15 9.15 0 100 18.3 9.15 9.15 0 000-18.3z" fill="#fff"/><path fill="#fff" d="M736.82 34.57l7.75-4.77-7.75-4.37z"/><g fill-rule="evenodd" clip-rule="evenodd"><circle cx="780" cy="80" fill="#ffcc07" r="17.5"/><path d="M789.19 61.92v16.37l-.04.01v.02c0 1.6-.11 3.09-.32 3.86a8.39 8.39 0 01-8.03 6.32c-4.61 0-8.3-3.9-8.3-8.74 0-4.83 3.69-8.74 8.3-8.74 2.17 0 4.15.87 5.64 2.29.49.47.92.99 1.29 1.56-.1-.51-.2-1.16-.2-1.71V53.5l9.98 3.5v8.14l-8.32-3.22z" fill="#e83c3c"/></g><g fill="#13110c"><path d="M612.6 26.65c.01.04.03.08.06.11.09.09.22.09.31 0a7.73 7.73 0 016.96-4.69h.03a.31.31 0 00.13-.06l1.92-1.98a.22.22 0 000-.32l-1.92-1.98c-.05-.05-.11-.07-.16-.06l-.23-.01a7.1 7.1 0 00-5.12 2.19 7.6 7.6 0 00-1.98 6.8zM620.19 26.23a.22.22 0 00-.3.01l-.01.02-.01.02c-.38.48-.6 1.05-.63 1.64v.3l.01.09v.04l.01.09.01.05.01.08.01.05.01.08.01.06.02.07.02.06.02.07.02.06.02.07.02.06.02.06.03.06.03.06.03.06.03.06.03.06.03.05.04.07.03.05.05.07.03.05.05.07.03.04a.5.5 0 00.07.08l.02.03.1.1.04.04a2.7 2.7 0 003.86-.04l.95-.98.47-.48a.21.21 0 01.31 0l.53.55c.09.09.22.09.31 0a7.93 7.93 0 001.2-3.47.21.21 0 00-.06-.18l-.01-.01-.67-.69-.13-.13-.63-.65a.21.21 0 00-.31 0l-1.26 1.31-.42.43-.28.29a2.74 2.74 0 01-3.76.12"/><path d="M631.96 30.3a.21.21 0 00-.06-.18.21.21 0 00-.31 0l-.04.06-.01.01a13.16 13.16 0 01-2.63 3.96 12.32 12.32 0 01-17.82 0 13.02 13.02 0 01-2.63-3.97l-.04-.07a.21.21 0 00-.31 0 .22.22 0 00-.06.19 12.46 12.46 0 003.5 8.43 11.7 11.7 0 0016.92 0 12.48 12.48 0 003.49-8.43z"/></g><path d="M700 12.5a17.5 17.5 0 10.01 35.01A17.5 17.5 0 00700 12.5zm7.62 25.4a1.19 1.19 0 01-1.63.43c-3.14-1.84-6.78-2.13-9.27-2.06-2.76.08-4.79.63-4.81.64a1.2 1.2 0 11-.63-2.31 24.4 24.4 0 015.3-.72c1.79-.06 3.51.07 5.11.37 2.03.39 3.89 1.06 5.51 2.01.56.33.75 1.07.42 1.64zm2.22-4.62a1.42 1.42 0 01-1.94.51c-3.72-2.18-8.03-2.53-10.98-2.44-3.27.1-5.67.75-5.7.75a1.42 1.42 0 01-1.74-.99c-.21-.75.24-1.53.99-1.74a29.6 29.6 0 0112.33-.41c2.41.46 4.6 1.26 6.53 2.38.68.39.91 1.26.51 1.94zm1.37-4.2c-.3 0-.6-.08-.88-.24-8.86-5.18-20.34-2.1-20.46-2.07a1.74 1.74 0 01-.93-3.35c.13-.04 3.3-.9 7.71-1.04 2.6-.09 5.09.1 7.42.54 2.95.56 5.65 1.54 8.01 2.92.83.48 1.11 1.55.62 2.38a1.7 1.7 0 01-1.49.86z"/><g fill-rule="evenodd" clip-rule="evenodd"><circle cx="780" cy="30" fill="#878787" r="17.5"/><path d="M789.19 11.92v16.37l-.04.01v.02c0 1.6-.11 3.09-.32 3.86a8.39 8.39 0 01-8.03 6.32c-4.61 0-8.3-3.9-8.3-8.74s3.69-8.74 8.3-8.74c2.17 0 4.15.87 5.64 2.29.49.47.92.99 1.29 1.56-.1-.51-.2-1.16-.2-1.71V3.5L797.5 7v8.14l-8.31-3.22z"/></g><path d="M620 47.5a17.32 17.32 0 01-12.37-5.13 17.43 17.43 0 01-3.75-19.18 17.43 17.43 0 0122.93-9.31 17.43 17.43 0 019.31 22.93A17.43 17.43 0 01620 47.5zm0-33.8c-8.99 0-16.3 7.31-16.3 16.3s7.31 16.3 16.3 16.3 16.3-7.31 16.3-16.3-7.31-16.3-16.3-16.3z" fill="#020203"/><g><path d="M660 47.5a17.32 17.32 0 01-12.37-5.13 17.43 17.43 0 01-3.75-19.18 17.43 17.43 0 0122.93-9.31 17.43 17.43 0 019.31 22.93A17.43 17.43 0 01660 47.5zm0-33.8c-8.99 0-16.3 7.31-16.3 16.3s7.31 16.3 16.3 16.3 16.3-7.31 16.3-16.3-7.31-16.3-16.3-16.3z" fill="#020203"/><defs><path id="a" d="M665.68 21.02c.32-.06.61.01.85.22s.37.47.37.8v11.41c0 1.05-.29 1.88-.88 2.47-.58.58-1.39.87-2.41.87-.7 0-1.28-.19-1.73-.56a1.84 1.84 0 01-.68-1.45c0-.73.28-1.33.85-1.82a3.27 3.27 0 012.21-.73c.34 0 .69.06 1.07.18l.04-.02.02-.02v-7.34c0-.04-.02-.08-.07-.11-.04-.04-.09-.06-.13-.04l-8.22 1.6c-.12.03-.18.1-.18.22v8.98c0 1.05-.29 1.88-.88 2.47-.58.58-1.39.87-2.41.87-.7 0-1.28-.19-1.73-.58a1.76 1.76 0 01-.68-1.42c0-.73.29-1.33.85-1.82a3.27 3.27 0 012.21-.73c.34 0 .69.06 1.07.18l.04-.02.02-.02V24.26c0-.37.11-.7.33-.98.23-.3.53-.47.88-.53l9.19-1.73z"/></defs><use xlink:href="#a" overflow="visible" fill="#020203"/><clipPath id="b"><use xlink:href="#a" overflow="visible"/></clipPath></g><g><linearGradient id="c" gradientUnits="userSpaceOnUse" x1="675.34" y1="104.65" x2="645.13" y2="138.82" gradientTransform="matrix(1 0 0 -1 0 202)"><stop offset="0" stop-color="#62c6f2"/><stop offset=".52" stop-color="#875aa1" stop-opacity=".92"/><stop offset=".82" stop-color="#e83859" stop-opacity=".74"/><stop offset="1" stop-color="#e8423a"/></linearGradient><path d="M660 62.5h0A17.5 17.5 0 01677.5 80h0A17.5 17.5 0 01660 97.5h0A17.5 17.5 0 01642.5 80h0A17.5 17.5 0 01660 62.5z" fill="none" stroke="url(#c)"/><linearGradient id="d" gradientUnits="userSpaceOnUse" x1="642.88" y1="138.14" x2="675.46" y2="105.19" gradientTransform="matrix(1 0 0 -1 0 202)"><stop offset=".06" stop-color="#e94644"/><stop offset=".38" stop-color="#e8423b"/><stop offset=".52" stop-color="#8f6dad" stop-opacity=".75"/><stop offset=".63" stop-color="#67c1ee"/><stop offset=".96" stop-color="#68bfed"/></linearGradient><path d="M665.97 70.89c.34-.06.64.02.9.24s.39.51.39.85v12.16c0 1.12-.31 2-.92 2.63a3.4 3.4 0 01-2.53.92c-.74 0-1.34-.2-1.82-.59a1.93 1.93 0 01-.71-1.54c0-.77.3-1.42.9-1.94s1.37-.78 2.33-.78c.35 0 .73.06 1.13.19l.05-.02c.02 0 .02-.01.02-.02v-7.82a.13.13 0 00-.07-.12c-.05-.05-.09-.06-.14-.05l-8.63 1.71c-.12.03-.18.11-.18.24v9.58c0 1.12-.31 2-.92 2.63a3.4 3.4 0 01-2.53.92 2.7 2.7 0 01-1.82-.62c-.48-.4-.71-.9-.71-1.52 0-.77.3-1.42.9-1.94.6-.52 1.37-.78 2.33-.78.35 0 .73.06 1.13.19l.05-.02c.02 0 .02-.01.02-.02v-11c0-.4.12-.74.35-1.04.25-.32.55-.51.92-.57l9.56-1.87z" fill="url(#d)"/></g><g><path d="M648.75 102.5c-.45 2.42-4.05 3.08-4.06 5.66 1.36-.33 2.37-1.81 3.84-2.51.7 2.8-4.33 3.73-3.79 6.14 1.38-.25 2.28-2.16 3.88-2.3-6.12 8.57-2.64 5.82-4.77 9.15-5.57.89-1.88-1.45-7.83-9.25 1.41.09 2.38 2.14 3.92 2.34.06-2.32-4.22-3.67-3.89-5.92 1.43.29 2.35 1.83 3.83 2.48.56-2.11-4.03-3.9-3.98-5.81 11.02 6.42 4.04 3.54 12.85.02zM660.07 128.93c-24.09 38.85-16.45 24.01-36.17.13-.07 18.62-.3 40-.02 41.86l.05.64c.04.4.08.71.13.99.08.43.18.71.29.91.24.38.56.37.99.36 5.6.38 2.5 5.48-9.44 2.17-1.06-1.81 1.52-1.72 3.47-2.66.97-14.7.23-29.73.21-44.37-2.68-1.08-5.38-2.91-1.08-3.68 3.39.12 6.8-.71 8.41.82 5.57 7.44 9.51 15.03 15.29 22.29 5.23-4.35 13.34-21.54 16.59-22.91 1.94-.26 10.12-1.1 9.5 1.35-.41 2.37-3.55.47-3.3 3.01-.31 11.52.06 9.6-.17 34.25.01 12.63.5 8.83 2.67 9.85 6.29 4.17-11.05 3.27-10.88 2.13-1.24-2.96 3.31-1.59 3.64-3.09.1-14.88.71-29.65-.18-44.05z"/><path d="M642.83 182.66c-41.26-.21-35.02 1.27-35.71-3.49-.16-12.22-.04-24.2-.05-36.38.27-3.48-1.34-8.55 3.36-6.85.87.81.34 2.24.53 3.47.08 10.74.09 21.17.13 31.88.16 6.83-1.08 7.44 3.63 7.31 7.87.1 15.48.03 23.31.05 10-.25 35.52.61 35.47-.54.84-8.01-.02-16.33.3-24.48.34-15.31-.71-17.28 1.42-17.94 4.67-1.61 1.84 10.91 2.56 12.99-.07 11.08.13 21.66-.16 32.89-.22 1.1-.92.95-2.12 1-11.09.18-21.69.04-32.67.09z"/><path d="M661.27 123.7c-5.11.08-16.39-1.12-16.42 1.2-1.01 12.18 1.17 19.62-1.77 19.93-.7-.17-3.23.89-2.9-3.29-.4-14.13.69-16.94-1.18-17.71-1.64.04-20.26-.25-26.74.17-.7.11-1.02.26-1.09.47-1.32 10.84 3.55 4.03 4.29 8.3.03 2.55-15.91 2.12-12.48-1.09 7-1.1 2.46-7.03 4.51-11.42 2.78-1.27 64.37-.23 67.98-.4 4.22-.19 1.19 2.63 2.79 10.43 8.1 2.88 3.15 3.89-2.84 3.84-7.48-.07-8.85-1.4-1.97-4 3.13-10.5-8.22-5.63-12.18-6.43zM644.54 165.98c-.2 5.71.52 11.47-.52 11.49-1.13.04-3.06.34-3.65-.34-.46-2.52-.15-5-.27-7.6.2-10.47-.66-14.92.87-15.39 1.32-.24 3.86-.45 3.68 1.62M636.04 187.32c6.14 4.27 2.17-1.69 5.1-3.39 6.44-1.66 1.03 8.33 6.61 3.78.48-.35.92-.68.53.3-8.11 14.59-5.02 10.76-12.24-.69z"/></g><path d="M724.63 126.67c0-.46.45-1.32 1.36-2.57a18.41 18.41 0 001.36-1.98c0-.18-.17-.34-.49-.48s-.73-.31-1.2-.48c-.47-.18-.95-.41-1.44-.69a3.43 3.43 0 01-1.22-1.28 4.14 4.14 0 01-.49-2.05c0-1.36.48-2.48 1.44-3.34a5.33 5.33 0 013.71-1.3c1.46 0 2.7.47 3.71 1.41a4.56 4.56 0 011.52 3.46c0 1.56-.32 3.12-.97 4.7-.65 1.57-1.52 2.86-2.6 3.89s-2.2 1.54-3.36 1.54c-.89.01-1.33-.27-1.33-.83zm12.62 0c0-.46.45-1.32 1.36-2.57a18.41 18.41 0 001.36-1.98c0-.18-.17-.34-.49-.48a14.9 14.9 0 00-1.2-.48c-.47-.18-.95-.41-1.44-.69a3.43 3.43 0 01-1.22-1.28 4.14 4.14 0 01-.49-2.05c0-1.36.48-2.48 1.44-3.34a5.33 5.33 0 013.71-1.3c1.46 0 2.7.47 3.71 1.41a4.56 4.56 0 011.52 3.46c0 1.56-.32 3.12-.97 4.7a11.12 11.12 0 01-2.6 3.89 4.86 4.86 0 01-3.36 1.54c-.88.01-1.33-.27-1.33-.83z" fill="#020203"/></svg>
